<?xml version="1.0"?>
<svg xmlns="http://www.w3.org/2000/svg" xmlns:xlink="http://www.w3.org/1999/xlink" version="1.1" id="Layer_1" x="0px" y="0px" viewBox="0 0 512 512" style="enable-background:new 0 0 512 512;" xml:space="preserve" width="512px" height="512px" class=""><g><g>
	<g>
		<path d="M397.907,484.519c-0.179-0.156-61.403-53.641-61.586-53.791l-56.498-49.361l77.772-67.95h-47.637L256,360.552    l-53.958-47.135h-47.637l77.772,67.95l-57.031,49.821l-61.053,53.332c-6.52,5.695-7.189,15.6-1.494,22.121    c5.693,6.497,15.564,7.199,22.12,1.494l56.863-49.674h128.836l56.863,49.674c6.555,5.704,16.427,5.004,22.12-1.494    C405.096,500.12,404.428,490.214,397.907,484.519z M227.464,427.112L256,402.181l28.536,24.931H227.464z" data-original="#000000" class="active-path" fill="#000000"/>
	</g>
</g><g>
	<g>
		<path d="M429.265,140.957c-8.662,0-15.673,7.022-15.673,15.673v35.035h-10.658V15.673C402.933,7.022,395.912,0,387.26,0H124.74    c-8.652,0-15.673,7.022-15.673,15.673v175.992H98.408V156.63c0-8.652-7.011-15.673-15.673-15.673    c-8.652,0-15.673,7.022-15.673,15.673v109.767c0,8.662,7.022,15.673,15.673,15.673h346.53c8.652,0,15.674-7.011,15.674-15.673    V156.63C444.938,147.978,437.917,140.957,429.265,140.957z M231.831,65.128l13.96-2.017l6.238-12.57c1.62-3.26,6.322-3.26,7.941,0    l6.238,12.57l13.96,2.017c3.626,0.522,5.078,4.953,2.456,7.502l-10.104,9.78l2.382,13.814c0.627,3.615-3.197,6.322-6.416,4.639    L256,94.344l-12.487,6.52c-3.239,1.693-7.043-1.045-6.416-4.639l2.382-13.814l-10.104-9.78    C226.753,70.092,228.206,65.651,231.831,65.128z M371.586,191.666H140.413v-42.203h231.173V191.666z" data-original="#000000" class="active-path" fill="#000000"/>
	</g>
</g></g> </svg>
